<svg width="300" height="89" viewBox="0 0 300 89" fill="none" xmlns="http://www.w3.org/2000/svg">
<g clip-path="url(#clip0_385_870)">
<path fill-rule="evenodd" clip-rule="evenodd" d="M288.885 88.8889H11.1152C4.98915 88.8889 0 83.8792 0 77.7778V11.1111C0 4.98753 4.98915 0 11.1152 0H288.885C295.005 0 300 4.98753 300 11.1111V77.7778C300 83.8792 295.005 88.8889 288.885 88.8889Z" fill="black"/>
<path fill-rule="evenodd" clip-rule="evenodd" d="M288.885 1.77889C294.023 1.77889 298.228 5.97395 298.228 11.1111V77.7778C298.228 82.9149 294.051 87.11 288.885 87.11H11.1152C5.97704 87.11 1.77159 82.9149 1.77159 77.7778V11.1111C1.77159 5.97395 5.94945 1.77889 11.1152 1.77889H288.885ZM288.885 0H11.1152C4.98915 0 0 5.0097 0 11.1111V77.7778C0 83.9014 4.98915 88.8889 11.1152 88.8889H288.885C295.005 88.8889 300 83.9014 300 77.7778V11.1111C300 5.0097 295.005 0 288.885 0Z" fill="#A6A6A6"/>
<path d="M158.041 29.4041C156.037 29.4041 154.349 28.7003 153.013 27.3149C151.688 25.9683 150.949 24.1118 150.982 22.2165C150.982 20.1938 151.666 18.4814 153.013 17.1237C154.343 15.7383 156.032 15.0345 158.035 15.0345C160.017 15.0345 161.705 15.7383 163.063 17.1237C164.41 18.5258 165.094 20.2381 165.094 22.2165C165.072 24.2448 164.388 25.9572 163.063 27.3094C161.733 28.7059 160.044 29.4041 158.041 29.4041ZM98.4308 29.4041C96.4715 29.4041 94.7717 28.7114 93.3809 27.3426C92.0012 25.9793 91.3003 24.2559 91.3003 22.2221C91.3003 20.1883 92.0012 18.4648 93.3809 17.1015C94.7441 15.7327 96.4439 15.04 98.4308 15.04C99.4021 15.04 100.346 15.234 101.251 15.6274C102.139 16.0098 102.862 16.5307 103.398 17.168L103.53 17.3288L102.035 18.8028L101.88 18.62C101.036 17.6114 99.9043 17.1182 98.4087 17.1182C97.0731 17.1182 95.9086 17.5948 94.9483 18.5368C93.9825 19.4845 93.4913 20.7258 93.4913 22.2276C93.4913 23.7294 93.9825 24.9708 94.9483 25.9184C95.9086 26.8605 97.0731 27.3371 98.4087 27.3371C99.8326 27.3371 101.03 26.8605 101.963 25.9184C102.515 25.3642 102.857 24.5884 102.978 23.6075H98.1824V21.5349H105.037L105.065 21.7233C105.114 22.0724 105.164 22.4327 105.164 22.7652C105.164 24.677 104.59 26.2232 103.453 27.3648C102.162 28.7169 100.473 29.4041 98.4308 29.4041ZM177.688 29.1104H175.574L169.101 18.7086L169.156 20.5817V29.1049H167.042V15.3337H169.454L169.52 15.439L175.608 25.2368L175.552 23.3692V15.3337H177.688V29.1104ZM142.157 29.1104H140.016V17.4063H136.302V15.3337H145.866V17.4063H142.152V29.1104H142.157ZM134.558 29.1104H132.422V15.3337H134.558V29.1104ZM122.554 29.1104H120.418V17.4063H116.704V15.3337H126.268V17.4063H122.554V29.1104ZM115.352 29.0882H107.162V15.3337H115.352V17.4063H109.303V21.1858H114.761V23.2362H109.303V27.0156H115.352V29.0882ZM154.58 25.8907C155.535 26.8494 156.694 27.3315 158.041 27.3315C159.426 27.3315 160.557 26.8605 161.501 25.8907C162.439 24.9486 162.914 23.7128 162.914 22.2221C162.914 20.7314 162.439 19.49 161.507 18.5535C160.552 17.5948 159.387 17.1126 158.046 17.1126C156.661 17.1126 155.53 17.5837 154.591 18.5535C153.653 19.4956 153.179 20.7314 153.179 22.2221C153.179 23.7128 153.648 24.9541 154.58 25.8907Z" fill="white"/>
<path fill-rule="evenodd" clip-rule="evenodd" d="M150.784 48.3458C145.568 48.3458 141.341 52.3192 141.341 57.7999C141.341 63.2308 145.596 67.2541 150.784 67.2541C155.999 67.2541 160.226 63.2529 160.226 57.7999C160.226 52.3192 155.999 48.3458 150.784 48.3458ZM150.784 63.5079C147.93 63.5079 145.474 61.136 145.474 57.7777C145.474 54.3696 147.936 52.0476 150.784 52.0476C153.637 52.0476 156.093 54.3696 156.093 57.7777C156.098 61.1582 153.637 63.5079 150.784 63.5079ZM130.181 48.3458C124.966 48.3458 120.738 52.3192 120.738 57.7999C120.738 63.2308 124.993 67.2541 130.181 67.2541C135.397 67.2541 139.624 63.2529 139.624 57.7999C139.624 52.3192 135.391 48.3458 130.181 48.3458ZM130.181 63.5079C127.328 63.5079 124.872 61.136 124.872 57.7777C124.872 54.3696 127.333 52.0476 130.181 52.0476C133.034 52.0476 135.49 54.3696 135.49 57.7777C135.49 61.1582 133.034 63.5079 130.181 63.5079ZM105.666 51.233V55.2341H115.23C114.938 57.4785 114.198 59.1355 113.067 60.2715C111.665 61.6791 109.502 63.2086 105.688 63.2086C99.8103 63.2086 95.2129 58.4428 95.2129 52.5408C95.2129 46.6389 99.8103 41.8731 105.688 41.8731C108.861 41.8731 111.174 43.131 112.89 44.7381L115.716 41.9008C113.332 39.6065 110.158 37.8498 105.71 37.8498C97.6468 37.8498 90.8806 44.4444 90.8806 52.5187C90.8806 60.6151 97.6413 67.1876 105.71 67.1876C110.065 67.1876 113.332 65.7578 115.915 63.0645C118.547 60.4211 119.381 56.6916 119.381 53.6824C119.381 52.7459 119.309 51.9035 119.16 51.1887H105.66C105.666 51.1831 105.666 51.233 105.666 51.233ZM205.94 54.3474C205.151 52.225 202.767 48.3236 197.877 48.3236C193.031 48.3236 189.002 52.1529 189.002 57.7777C189.002 63.0867 192.987 67.2319 198.346 67.2319C202.651 67.2319 205.156 64.5885 206.188 63.0368L202.993 60.8866C201.933 62.466 200.46 63.5023 198.368 63.5023C196.254 63.5023 194.775 62.5381 193.793 60.6373L206.382 55.4004C206.382 55.4059 205.94 54.3474 205.94 54.3474ZM193.103 57.5062C193.004 53.8542 195.929 51.9978 198.02 51.9978C199.671 51.9978 201.045 52.8124 201.514 53.9983L193.103 57.5062ZM182.876 66.6666H187.01V38.8916H182.876V66.6666ZM176.088 50.4461H175.939C175.006 49.3322 173.235 48.3236 170.972 48.3236C166.275 48.3236 161.948 52.4743 161.948 57.8055C161.948 63.1144 166.253 67.2153 170.972 67.2153C173.207 67.2153 175.006 66.2011 175.939 65.0651H176.088V66.4228C176.088 70.0304 174.167 71.9756 171.071 71.9756C168.538 71.9756 166.965 70.1468 166.325 68.6173L162.732 70.1247C163.764 72.6184 166.518 75.7052 171.066 75.7052C175.911 75.7052 180.018 72.8401 180.018 65.852V48.8889H176.11V50.4461C176.116 50.4461 176.088 50.4461 176.088 50.4461ZM171.342 63.5079C168.488 63.5079 166.104 61.1139 166.104 57.8055C166.104 54.4694 168.488 52.0532 171.342 52.0532C174.167 52.0532 176.358 54.4971 176.358 57.8055C176.386 61.1139 174.173 63.5079 171.342 63.5079ZM225.295 38.8916H215.411V66.6666H219.544V56.1485H225.301C229.876 56.1485 234.374 52.8179 234.374 47.5311C234.374 42.2444 229.892 38.8916 225.295 38.8916ZM225.417 52.2693H219.539V42.7376H225.417C228.513 42.7376 230.262 45.3034 230.262 47.5034C230.262 49.6813 228.491 52.2693 225.417 52.2693ZM250.942 48.2959C247.94 48.2959 244.843 49.6314 243.563 52.5408L247.228 54.0704C248.017 52.5408 249.463 52.0199 250.992 52.0199C253.133 52.0199 255.296 53.3056 255.346 55.5999V55.8936C254.606 55.4724 252.984 54.8296 251.041 54.8296C247.084 54.8296 243.072 57.0019 243.072 61.0751C243.072 64.8046 246.317 67.1986 249.932 67.1986C252.708 67.1986 254.237 65.9407 255.191 64.4832H255.34V66.6334H259.325V55.9933C259.325 51.039 255.661 48.2959 250.942 48.2959ZM250.423 63.5079C249.071 63.5079 247.178 62.8429 247.178 61.136C247.178 58.9858 249.54 58.1712 251.554 58.1712C253.376 58.1712 254.237 58.5647 255.318 59.1078C255.02 61.6015 252.923 63.4857 250.423 63.5079ZM273.862 48.8889L269.116 60.9365H268.967L264.049 48.8889H259.601L266.98 65.7301L262.775 75.09H267.079L278.432 48.8889H273.862ZM236.653 66.6666H240.787V38.8916H236.653V66.6666Z" fill="white"/>
<path fill-rule="evenodd" clip-rule="evenodd" d="M23.0914 16.7414C22.4512 17.4341 22.0815 18.4926 22.0815 19.878V69.0163C22.0815 70.4017 22.4512 71.4602 23.1135 72.1252L23.2846 72.2748L50.7028 44.7436V44.1285L23.2625 16.5918L23.0914 16.7414Z" fill="url(#paint0_linear_385_870)"/>
<path fill-rule="evenodd" clip-rule="evenodd" d="M59.8254 53.9485L50.6804 44.7659V44.123L59.8254 34.9404L60.0241 35.0623L70.8413 41.2358C73.9375 42.987 73.9375 45.8798 70.8413 47.6531L60.0241 53.8265L59.8254 53.9485Z" fill="url(#paint1_linear_385_870)"/>
<path fill-rule="evenodd" clip-rule="evenodd" d="M60.0242 53.8266L50.6806 44.4445L23.0913 72.1474C24.1012 73.2336 25.7956 73.3555 27.6886 72.297L60.0242 53.8266Z" fill="url(#paint2_linear_385_870)"/>
<path fill-rule="evenodd" clip-rule="evenodd" d="M60.0242 35.0624L27.6886 16.6196C25.7956 15.5334 24.0957 15.683 23.0913 16.7692L50.6806 44.4445L60.0242 35.0624Z" fill="url(#paint3_linear_385_870)"/>
<path opacity="0.2" fill-rule="evenodd" clip-rule="evenodd" d="M59.8256 53.6272L27.7106 71.948C25.9169 72.9843 24.3164 72.9122 23.2843 71.9702L23.1133 72.142L23.2843 72.2916C24.3164 73.2281 25.9169 73.3057 27.7106 72.2694L60.0464 53.8267L59.8256 53.6272Z" fill="black"/>
<path opacity="0.12" fill-rule="evenodd" clip-rule="evenodd" d="M70.8414 47.3317L59.798 53.6271L59.9967 53.8266L70.8139 47.6531C72.3647 46.7664 73.1263 45.6027 73.1263 44.4445C73.0325 45.5085 72.2433 46.5171 70.8414 47.3317Z" fill="black"/>
<path opacity="0.25" fill-rule="evenodd" clip-rule="evenodd" d="M27.6887 16.941L70.8415 41.5573C72.2433 42.3497 73.0326 43.386 73.154 44.4445C73.154 43.2863 72.3924 42.1225 70.8415 41.2359L27.6887 16.6196C24.5926 14.8407 22.0815 16.3259 22.0815 19.8781V20.1996C22.0815 16.6418 24.5926 15.1843 27.6887 16.941Z" fill="white"/>
</g>
<defs>
<linearGradient id="paint0_linear_385_870" x1="48.2434" y1="19.3479" x2="4.30032" y2="31.0085" gradientUnits="userSpaceOnUse">
<stop stop-color="#00A0FF"/>
<stop offset="0.00657" stop-color="#00A1FF"/>
<stop offset="0.2601" stop-color="#00BEFF"/>
<stop offset="0.5122" stop-color="#00D2FF"/>
<stop offset="0.7604" stop-color="#00DFFF"/>
<stop offset="1" stop-color="#00E3FF"/>
</linearGradient>
<linearGradient id="paint1_linear_385_870" x1="74.879" y1="44.4445" x2="21.3285" y2="44.4445" gradientUnits="userSpaceOnUse">
<stop stop-color="#FFE000"/>
<stop offset="0.4087" stop-color="#FFBD00"/>
<stop offset="0.7754" stop-color="#FFA500"/>
<stop offset="1" stop-color="#FF9C00"/>
</linearGradient>
<linearGradient id="paint2_linear_385_870" x1="54.9435" y1="49.5497" x2="19.4707" y2="109.008" gradientUnits="userSpaceOnUse">
<stop stop-color="#FF3A44"/>
<stop offset="1" stop-color="#C31162"/>
</linearGradient>
<linearGradient id="paint3_linear_385_870" x1="16.144" y1="0.397338" x2="31.9699" y2="26.9527" gradientUnits="userSpaceOnUse">
<stop stop-color="#32A071"/>
<stop offset="0.0685" stop-color="#2DA771"/>
<stop offset="0.4762" stop-color="#15CF74"/>
<stop offset="0.8009" stop-color="#06E775"/>
<stop offset="1" stop-color="#00F076"/>
</linearGradient>
<clipPath id="clip0_385_870">
<rect width="300" height="88.8889" fill="white"/>
</clipPath>
</defs>
</svg>
